# xmcd
#
# Track frame offsets:
#	150
#	21700
#	38870
#	52525
#	64975
#	74240
#	85320
#	102620
#	116667
#	131322
#
# Disc length: 1932 seconds
#
# Revision: 1
# Processed by: cddbd v1.5.2PL0 Copyright (c) Steve Scherf et al.
# Submitted via: audiograbber 1.83.01
#
DISCID=93078a0a
DTITLE=Nelson, Willie - Pure Country
DYEAR=1997
DGENRE=Country
TTITLE0=Nelson, Willie and Haggard, Merle - Pancho and Lefty
TTITLE1=Nelson, Willie and Jennings, Waylon - Take It to the Limit
TTITLE2=Nelson, Willie and Russell, Leon - Heartbreak Hotel
TTITLE3=Nelson, Willie and Kristofferson, Kris - How Do You Feel About Foolin' Ar
TTITLE3=ound
TTITLE4=Nelson, Willie and Place, Mary Kay - Something to Brag About
TTITLE5=Nelson, Willie and Davis, Danny and The Nashville Brass - Night Life
TTITLE6=Nelson, Willie and Price, Ray - Faded Love
TTITLE7=Nelson, Willie and Miller, Roger - Old Friends
TTITLE8=Nelson, Willie and Parton, Dolly - Everything is Beautiful (In Its Own Wa
TTITLE8=y)
TTITLE9=Nelson, Willie Cash, Johnny Kristofferson, Kris and Jennings, Waylon - Hi
TTITLE9=ghwayman
EXTD=YEAR: 1997
EXTT0=
EXTT1=
EXTT2=
EXTT3=
EXTT4=
EXTT5=
EXTT6=
EXTT7=
EXTT8=
EXTT9=
PLAYORDER=
